<svg xmlns="http://www.w3.org/2000/svg" viewBox="0 0 74.28 89.39"><defs><style>.cls-1{fill:#fff;}.cls-2{fill:#00ff62;}</style></defs><title>close</title><g id="Layer_2" data-name="Layer 2"><g id="Layer_1-2" data-name="Layer 1"><rect class="cls-1" x="35.04" y="-11.44" width="6.61" height="84.7" rx="3.3" transform="translate(-10.63 36.17) rotate(-45)"/><rect class="cls-1" x="-4.01" y="27.61" width="84.7" height="6.61" rx="3.3" transform="translate(-10.63 36.17) rotate(-45)"/><path class="cls-2" d="M9.26,85.45a4,4,0,0,1-1.35,2.89,4.78,4.78,0,0,1-3.22,1,4.28,4.28,0,0,1-3.44-1.47,6.06,6.06,0,0,1-1.25-4v-.69A6.72,6.72,0,0,1,.58,80.3a4.32,4.32,0,0,1,1.65-1.92,4.63,4.63,0,0,1,2.49-.66,4.65,4.65,0,0,1,3.17,1,4.35,4.35,0,0,1,1.39,3H6.94a2.39,2.39,0,0,0-.61-1.6,2.3,2.3,0,0,0-1.61-.49A2,2,0,0,0,3,80.48a4.63,4.63,0,0,0-.6,2.6v.86a5.06,5.06,0,0,0,.56,2.69,2,2,0,0,0,1.76.85A2.33,2.33,0,0,0,6.31,87a2.21,2.21,0,0,0,.61-1.53Z"/><path class="cls-2" d="M19.85,87.35h5v1.89H17.51V77.87h2.34Z"/><path class="cls-2" d="M41.71,83.81a6.77,6.77,0,0,1-.59,2.94,4.39,4.39,0,0,1-1.7,2,4.66,4.66,0,0,1-2.53.69,4.76,4.76,0,0,1-2.52-.68,4.52,4.52,0,0,1-1.72-1.94,6.65,6.65,0,0,1-.61-2.9v-.56a6.85,6.85,0,0,1,.6-3,4.49,4.49,0,0,1,1.71-2,5,5,0,0,1,5,0,4.49,4.49,0,0,1,1.71,2,6.83,6.83,0,0,1,.6,2.94Zm-2.37-.51a4.77,4.77,0,0,0-.64-2.72,2.25,2.25,0,0,0-3.64,0,4.66,4.66,0,0,0-.65,2.69v.55a4.81,4.81,0,0,0,.64,2.7,2.24,2.24,0,0,0,3.65,0,4.81,4.81,0,0,0,.64-2.7Z"/><path class="cls-2" d="M56,86.25a1.19,1.19,0,0,0-.47-1,5.86,5.86,0,0,0-1.69-.75,11.92,11.92,0,0,1-1.92-.78A3.16,3.16,0,0,1,50,80.89a2.72,2.72,0,0,1,.52-1.64A3.4,3.4,0,0,1,52,78.12a5.61,5.61,0,0,1,2.18-.4,5,5,0,0,1,2.17.44,3.42,3.42,0,0,1,1.48,1.24,3.3,3.3,0,0,1,.53,1.83H56a1.51,1.51,0,0,0-.5-1.21,2,2,0,0,0-1.38-.44,2.1,2.1,0,0,0-1.33.37,1.14,1.14,0,0,0-.48,1,1.1,1.1,0,0,0,.56.93,6.35,6.35,0,0,0,1.64.7A7.08,7.08,0,0,1,57.45,84a3,3,0,0,1,.92,2.22,2.75,2.75,0,0,1-1.12,2.31,4.88,4.88,0,0,1-3,.84,5.8,5.8,0,0,1-2.39-.48,3.76,3.76,0,0,1-1.64-1.31,3.38,3.38,0,0,1-.57-1.94H52c0,1.25.75,1.88,2.25,1.88a2.16,2.16,0,0,0,1.3-.34A1.1,1.1,0,0,0,56,86.25Z"/><path class="cls-2" d="M73.5,84.31H69v3h5.28v1.89H66.66V77.87h7.6v1.9H69v2.71h4.5Z"/></g></g></svg>