<svg xmlns="http://www.w3.org/2000/svg" viewBox="0 0 177.95 104.21"><defs><style>.cls-1{fill:none;stroke:#00ff62;stroke-linecap:round;stroke-linejoin:round;stroke-width:8.22px;}.cls-2{fill:#00ff62;}</style></defs><title>scroll</title><g id="Layer_2" data-name="Layer 2"><g id="Layer_1-2" data-name="Layer 1"><line class="cls-1" x1="88.72" y1="100.1" x2="58.06" y2="69.44"/><line class="cls-1" x1="88.72" y1="100.1" x2="119.38" y2="69.44"/><path class="cls-2" d="M11,39.25a22.16,22.16,0,0,1-5.18-.63A16,16,0,0,1,1.39,37l.23-6.29h.46l1.44,3A14.18,14.18,0,0,0,4.91,36a4.8,4.8,0,0,0,2,1.56,7.28,7.28,0,0,0,1.78.62,10.2,10.2,0,0,0,1.92.16,6.28,6.28,0,0,0,4.47-1.53,5.08,5.08,0,0,0,1.64-3.93,5.21,5.21,0,0,0-1.11-3.54,11.52,11.52,0,0,0-3.56-2.48L10.18,26A19.7,19.7,0,0,1,4,22a8.3,8.3,0,0,1-2.25-6.08,8,8,0,0,1,1.41-4.73A9,9,0,0,1,7.06,8.1,15.09,15.09,0,0,1,13,7a16.48,16.48,0,0,1,4.65.64,13.59,13.59,0,0,1,3.82,1.76L21.15,15h-.46l-1.9-3.48a7.14,7.14,0,0,0-1.57-2.29,4.84,4.84,0,0,0-1.81-1A7.82,7.82,0,0,0,14.3,8,9.23,9.23,0,0,0,13,8,5.94,5.94,0,0,0,9,9.33,4.52,4.52,0,0,0,7.41,13a5.45,5.45,0,0,0,1.25,3.77,10.92,10.92,0,0,0,3.65,2.52l2.13.93a18.24,18.24,0,0,1,6.39,4.14A8.25,8.25,0,0,1,22.77,30a8.23,8.23,0,0,1-3.08,6.64Q16.62,39.25,11,39.25Z" transform="translate(-1.39 -5.97)"/><path class="cls-2" d="M36.52,39.11a12,12,0,0,1-5.72-1.37,10.05,10.05,0,0,1-4.07-4,12.69,12.69,0,0,1-1.51-6.41,11.94,11.94,0,0,1,1.65-6.41,11,11,0,0,1,4.39-4.07,13.07,13.07,0,0,1,6-1.41,10.47,10.47,0,0,1,4.54.88,6.93,6.93,0,0,1,2.82,2.29,5.09,5.09,0,0,1,1,2.94,2.6,2.6,0,0,1-.78,2,2.92,2.92,0,0,1-2,.72,2.74,2.74,0,0,1-2.17-1,4.44,4.44,0,0,1-1-2.55,10.33,10.33,0,0,1,.05-1.73,5.94,5.94,0,0,0,0-1.46,1.61,1.61,0,0,0-.58-1A2,2,0,0,0,38,16.29a4.9,4.9,0,0,0-4.37,2.45q-1.55,2.46-1.55,7.83c0,3.11.58,5.5,1.74,7.15a6.06,6.06,0,0,0,5.34,2.47,7,7,0,0,0,3.52-.78,9.67,9.67,0,0,0,2.59-2.36l.46.37a8.88,8.88,0,0,1-3.56,4.21A10.69,10.69,0,0,1,36.52,39.11Z" transform="translate(-1.39 -5.97)"/><path class="cls-2" d="M47.9,38.41V38l.7-.18a2.19,2.19,0,0,0,1.27-.84,2.66,2.66,0,0,0,.35-1.43V21a2.59,2.59,0,0,0-.35-1.5,1.93,1.93,0,0,0-1.27-.67l-.7-.19v-.46l8-2.69.46.47.42,4v.37a9.82,9.82,0,0,1,4-4.17,5.27,5.27,0,0,1,2.53-.69,3.52,3.52,0,0,1,2.68,1,3.41,3.41,0,0,1,.93,2.45A3.16,3.16,0,0,1,66,21.31a3,3,0,0,1-2.15.86,4.26,4.26,0,0,1-3.42-1.94l-.1-.1a1.49,1.49,0,0,0-1.06-.71,1.22,1.22,0,0,0-1.11.57,3.44,3.44,0,0,0-.76,1,11.06,11.06,0,0,0-.58,1.32V35.22a2.15,2.15,0,0,0,1.62,2.32l1.48.41v.46Z" transform="translate(-1.39 -5.97)"/><path class="cls-2" d="M79.28,39.11a12.3,12.3,0,0,1-6.11-1.46,9.92,9.92,0,0,1-4-4.14,13.37,13.37,0,0,1-1.41-6.3A12.4,12.4,0,0,1,69.26,21a10.49,10.49,0,0,1,4.12-4.08,12.93,12.93,0,0,1,11.78,0,10.37,10.37,0,0,1,4.1,4.05,12.54,12.54,0,0,1,1.5,6.29,13.31,13.31,0,0,1-1.41,6.32,10,10,0,0,1-4,4.12A12.15,12.15,0,0,1,79.28,39.11Zm0-.93a3.57,3.57,0,0,0,2.59-.92A6.13,6.13,0,0,0,83.29,34a39,39,0,0,0,.43-6.66,39.46,39.46,0,0,0-.43-6.71,6.09,6.09,0,0,0-1.42-3.29,3.57,3.57,0,0,0-2.59-.93,3.66,3.66,0,0,0-2.61.93,5.87,5.87,0,0,0-1.44,3.29,39.26,39.26,0,0,0-.44,6.71A38.85,38.85,0,0,0,75.23,34a5.91,5.91,0,0,0,1.44,3.29A3.65,3.65,0,0,0,79.28,38.18Z" transform="translate(-1.39 -5.97)"/><path class="cls-2" d="M92.75,38.41V38l.55-.18A2.23,2.23,0,0,0,95,35.45V10.69a2.26,2.26,0,0,0-.37-1.41,2.33,2.33,0,0,0-1.3-.72l-.6-.14V8l8.47-2,.56.42-.19,6.48V28.7c0,1.14,0,2.27,0,3.4s0,2.24,0,3.35A2.75,2.75,0,0,0,102,37a2.19,2.19,0,0,0,1.25.85l.6.14v.46Z" transform="translate(-1.39 -5.97)"/><path class="cls-2" d="M106,38.41V38l.55-.18a2.24,2.24,0,0,0,1.67-2.32V10.69a2.33,2.33,0,0,0-.37-1.41,2.33,2.33,0,0,0-1.3-.72l-.6-.14V8l8.47-2,.55.42-.18,6.48V28.7c0,1.14,0,2.27,0,3.4s0,2.24,0,3.35A2.75,2.75,0,0,0,115.2,37a2.16,2.16,0,0,0,1.25.85l.6.14v.46Z" transform="translate(-1.39 -5.97)"/><path class="cls-2" d="M140.88,39.11a12.3,12.3,0,0,1-6.11-1.46,9.92,9.92,0,0,1-4-4.14,13.37,13.37,0,0,1-1.41-6.3,12.4,12.4,0,0,1,1.5-6.24A10.49,10.49,0,0,1,135,16.89a12.93,12.93,0,0,1,11.78,0,10.37,10.37,0,0,1,4.1,4.05,12.54,12.54,0,0,1,1.5,6.29A13.31,13.31,0,0,1,151,33.53a10,10,0,0,1-4,4.12A12.15,12.15,0,0,1,140.88,39.11Zm0-.93a3.57,3.57,0,0,0,2.59-.92A6.13,6.13,0,0,0,144.89,34a38.85,38.85,0,0,0,.44-6.66,39.26,39.26,0,0,0-.44-6.71,6.09,6.09,0,0,0-1.42-3.29,3.57,3.57,0,0,0-2.59-.93,3.66,3.66,0,0,0-2.61.93,5.87,5.87,0,0,0-1.44,3.29,39.26,39.26,0,0,0-.44,6.71,38.85,38.85,0,0,0,.44,6.66,5.91,5.91,0,0,0,1.44,3.29A3.65,3.65,0,0,0,140.88,38.18Z" transform="translate(-1.39 -5.97)"/><path class="cls-2" d="M154.4,38.41V38l.64-.18a2.12,2.12,0,0,0,1.62-2.27V21a2.7,2.7,0,0,0-.32-1.5,1.83,1.83,0,0,0-1.25-.67l-.69-.19v-.46l7.91-2.69.46.47.37,2.77a14.81,14.81,0,0,1,3.66-2.36,9.79,9.79,0,0,1,4-.92,6.29,6.29,0,0,1,4.69,1.66,7,7,0,0,1,1.65,5.1V35.54a2.13,2.13,0,0,0,1.76,2.27l.41.14v.46H168.42V38l.6-.18a2.16,2.16,0,0,0,1.62-2.27V20.73a2.62,2.62,0,0,0-3-3,7.13,7.13,0,0,0-4.44,2V35.54a2.11,2.11,0,0,0,1.62,2.27l.41.14v.46Z" transform="translate(-1.39 -5.97)"/></g></g></svg>